<?xml version="1.0" encoding="UTF-8" standalone="no"?>
<svg width="31px" height="32px" viewBox="0 0 31 32" version="1.1" xmlns="http://www.w3.org/2000/svg" xmlns:xlink="http://www.w3.org/1999/xlink">
    <!-- Generator: Sketch 3.6.1 (26313) - http://www.bohemiancoding.com/sketch -->
    <title>facebook-square - fontawesome</title>
    <desc>Created with Sketch.</desc>
    <defs></defs>
    <g id="Homepage-Exploration" stroke="none" stroke-width="1" fill="none" fill-rule="evenodd">
        <g id="Home-Page" transform="translate(-172.000000, -3752.000000)" fill="#FFFFFF">
            <g id="Footer" transform="translate(0.000000, 3440.000000)">
                <g id="Social-Icons" transform="translate(95.000000, 312.000000)">
                    <path d="M102.071429,0.714285714 C103.665187,0.714285714 105.027896,1.28012827 106.159598,2.41183036 C107.2913,3.54353244 107.857143,4.90624203 107.857143,6.5 L107.857143,25.7857143 C107.857143,27.3794723 107.2913,28.7421818 106.159598,29.8738839 C105.027896,31.005586 103.665187,31.5714286 102.071429,31.5714286 L98.2946429,31.5714286 L98.2946429,19.6183036 L102.292411,19.6183036 L102.895089,14.9575893 L98.2946429,14.9575893 L98.2946429,11.984375 C98.2946429,11.2343713 98.4520074,10.6718769 98.7667411,10.296875 C99.0814748,9.92187313 99.6941919,9.734375 100.604911,9.734375 L103.055804,9.71428571 L103.055804,5.55580357 C102.212049,5.43526725 101.020097,5.375 99.4799107,5.375 C97.658473,5.375 96.2020144,5.91070893 95.1104911,6.98214286 C94.0189678,8.05357679 93.4732143,9.56695451 93.4732143,11.5223214 L93.4732143,14.9575893 L89.4553571,14.9575893 L89.4553571,19.6183036 L93.4732143,19.6183036 L93.4732143,31.5714286 L82.7857143,31.5714286 C81.1919563,31.5714286 79.8292467,31.005586 78.6975446,29.8738839 C77.5658426,28.7421818 77,27.3794723 77,25.7857143 L77,6.5 C77,4.90624203 77.5658426,3.54353244 78.6975446,2.41183036 C79.8292467,1.28012827 81.1919563,0.714285714 82.7857143,0.714285714 L102.071429,0.714285714 Z" id="facebook-square---fontawesome"></path>
                </g>
            </g>
        </g>
    </g>
</svg>