<?xml version="1.0" encoding="UTF-8" standalone="no"?>
<svg width="54px" height="46px" viewBox="0 0 54 46" version="1.1" xmlns="http://www.w3.org/2000/svg" xmlns:xlink="http://www.w3.org/1999/xlink">
    <!-- Generator: Sketch 3.6.1 (26313) - http://www.bohemiancoding.com/sketch -->
    <title>Page 1</title>
    <desc>Created with Sketch.</desc>
    <defs></defs>
    <g id="Homepage-Exploration" stroke="none" stroke-width="1" fill="none" fill-rule="evenodd">
        <g id="Home-Page" transform="translate(-42.000000, -3788.000000)" fill="#F0F6F8">
            <g id="Page-1" transform="translate(42.000000, 3788.000000)">
                <path d="M39.195,17.965 L38.949,17.465 L37.734,15 L36.519,17.465 L36.273,17.965 L35.723,18.043 L33,18.442 L34.969,20.367 L35.367,20.754 L35.273,21.301 L34.812,24.016 L37.238,22.739 L37.734,22.477 L38.226,22.739 L40.656,24.016 L40.191,21.301 L40.098,20.754 L40.496,20.367 L42.465,18.442 L39.746,18.043 L39.195,17.965 Z" id="Fill-1"></path>
                <path d="M46.742,0 L6.43,0 C2.895,0 0,2.895 0,6.43 L0,32.238 C0,35.774 2.895,38.668 6.43,38.668 L7.914,38.668 L13.414,45.016 C14.227,45.867 14.981,45.606 15.086,44.43 L15.106,38.684 L15.106,38.668 L46.742,38.668 C50.277,38.668 53.172,35.774 53.172,32.238 L53.172,6.43 C53.168,2.895 50.274,0 46.742,0 L46.742,0 Z M20.441,28.629 L14.25,25.371 L8.059,28.629 L9.242,21.731 L4.227,16.844 L11.152,15.836 L14.25,9.563 L17.348,15.836 L24.274,16.844 L19.262,21.731 L20.441,28.629 Z M42.824,21.731 L44.004,28.629 L37.82,25.371 L31.637,28.629 L32.816,21.731 L27.816,16.844 L34.731,15.836 L37.824,9.563 L40.914,15.836 L47.828,16.844 L42.824,21.731 Z" id="Fill-2"></path>
            </g>
        </g>
    </g>
</svg>