<?xml version="1.0" encoding="utf-8"?>
<!-- Generator: Adobe Illustrator 16.0.4, SVG Export Plug-In . SVG Version: 6.00 Build 0)  -->
<!DOCTYPE svg PUBLIC "-//W3C//DTD SVG 1.1//EN" "http://www.w3.org/Graphics/SVG/1.1/DTD/svg11.dtd">
<svg version="1.1" id="Layer_1" xmlns="http://www.w3.org/2000/svg" xmlns:xlink="http://www.w3.org/1999/xlink" x="0px" y="0px"
	 width="100px" height="100px" viewBox="0 0 100 100" enable-background="new 0 0 100 100" xml:space="preserve">
<path fill="#454545" d="M66.694,72.481v-4.586c6.13-3.457,11.13-12.064,11.13-20.683c0-13.827,0-25.042-16.694-25.042
	c-16.695,0-16.695,11.215-16.695,25.042c0,8.619,4.997,17.226,11.13,20.683v4.586c-18.877,1.544-33.389,10.814-33.389,22.031h77.908
	C100.084,83.296,85.574,74.025,66.694,72.481z"/>
<path fill="#454545" d="M28.363,74.634c4.81-3.153,10.79-5.532,17.374-6.989c-1.308-1.555-2.498-3.271-3.522-5.131
	c-2.644-4.804-4.041-10.096-4.041-15.291c0-7.479,0-14.548,2.66-20.33c2.582-5.614,7.228-9.092,13.844-10.391
	C53.212,9.856,49.293,5.486,38.871,5.486c-16.694,0-16.694,11.211-16.694,25.041c0,8.609,4.997,17.223,11.129,20.673v4.599
	C14.429,57.33-0.083,66.613-0.083,77.829h24.256C25.437,76.698,26.833,75.633,28.363,74.634L28.363,74.634z"/>
</svg>
