<?xml version="1.0" encoding="utf-8"?>
<!-- Generator: Adobe Illustrator 16.0.4, SVG Export Plug-In . SVG Version: 6.00 Build 0)  -->
<!DOCTYPE svg PUBLIC "-//W3C//DTD SVG 1.1//EN" "http://www.w3.org/Graphics/SVG/1.1/DTD/svg11.dtd">
<svg version="1.1" id="Layer_1" xmlns="http://www.w3.org/2000/svg" xmlns:xlink="http://www.w3.org/1999/xlink" x="0px" y="0px"
	 width="100px" height="100px" viewBox="0 0 100 100" enable-background="new 0 0 100 100" xml:space="preserve">
<path fill="#454545" d="M50,94.652c24.659,0,44.651-19.992,44.651-44.652C94.651,25.342,74.659,5.349,50,5.349
	C25.341,5.349,5.348,25.342,5.348,50C5.348,74.66,25.341,94.652,50,94.652z M50,13.721c20.037,0,36.279,16.243,36.279,36.28
	S70.037,86.279,50,86.279c-20.037,0-36.28-16.242-36.28-36.279S29.963,13.721,50,13.721z M22.093,50v5.582
	c0,12.279,10.046,22.326,22.326,22.326h11.162c12.28,0,22.326-10.047,22.326-22.326V50H22.093z M38.837,71.367
	c-2.316-0.828-4.442-2.17-6.241-3.963c-3.178-3.178-4.922-7.375-4.922-11.822h11.163V71.367z M55.581,72.326H44.419V55.582h11.162
	V72.326z M67.403,67.404c-1.798,1.793-3.924,3.135-6.241,3.963V55.582h11.164C72.326,60.029,70.581,64.227,67.403,67.404z
	 M25.003,38.837L25.003,38.837c0.85,0,1.581-0.61,1.717-1.455c0.534-3.199,3.287-5.521,6.536-5.521c3.249,0,5.996,2.322,6.535,5.521
	c0.136,0.845,0.872,1.455,1.717,1.455c0.85,0,1.58-0.61,1.722-1.455c0.098-0.562,0.142-1.128,0.142-1.685
	c0-5.581-4.541-10.122-10.122-10.122c-5.582,0-10.123,4.541-10.123,10.122c0,0.556,0.055,1.123,0.142,1.685
	c0.142,0.845,0.872,1.455,1.722,1.455H25.003z M58.492,38.837L58.492,38.837c0.851,0,1.581-0.61,1.717-1.455
	c0.535-3.199,3.287-5.521,6.535-5.521s5.996,2.322,6.536,5.521c0.136,0.845,0.872,1.455,1.716,1.455c0.851,0,1.582-0.61,1.723-1.455
	c0.099-0.562,0.142-1.128,0.142-1.685c0-5.581-4.539-10.122-10.121-10.122s-10.122,4.541-10.122,10.122
	c0,0.556,0.044,1.123,0.141,1.685c0.143,0.845,0.873,1.455,1.723,1.455H58.492z"/>
</svg>
