<?xml version="1.0" encoding="UTF-8" standalone="no"?>
<svg width="31px" height="32px" viewBox="0 0 31 32" version="1.1" xmlns="http://www.w3.org/2000/svg" xmlns:xlink="http://www.w3.org/1999/xlink">
    <!-- Generator: Sketch 3.6.1 (26313) - http://www.bohemiancoding.com/sketch -->
    <title>twitter-square - fontawesome</title>
    <desc>Created with Sketch.</desc>
    <defs></defs>
    <g id="Homepage-Exploration" stroke="none" stroke-width="1" fill="none" fill-rule="evenodd">
        <g id="Home-Page" transform="translate(-95.000000, -3752.000000)" fill="#FFFFFF">
            <g id="Footer" transform="translate(0.000000, 3440.000000)">
                <g id="Social-Icons" transform="translate(95.000000, 312.000000)">
                    <path d="M25.7142857,10.3973214 C24.964282,10.7321445 24.1540222,10.9598208 23.2834821,11.0803571 C24.194201,10.5446402 24.8169626,9.76116587 25.1517857,8.72991071 C24.2812456,9.23884183 23.3839332,9.58035627 22.4598214,9.75446429 C21.6428531,8.87053129 20.6183097,8.42857143 19.3861607,8.42857143 C18.2209763,8.42857143 17.2265666,8.84039767 16.4029018,9.6640625 C15.579237,10.4877273 15.1674107,11.482137 15.1674107,12.6473214 C15.1674107,13.0357162 15.2008925,13.3571416 15.2678571,13.6116071 C13.5401699,13.5178567 11.9196504,13.0825932 10.40625,12.3058036 C8.89284958,11.529014 7.60714815,10.4910779 6.54910714,9.19196429 C6.16071234,9.86161049 5.96651786,10.5714248 5.96651786,11.3214286 C5.96651786,12.8482219 6.57588676,14.0200852 7.79464286,14.8370536 C7.16517542,14.8236606 6.49553926,14.6495552 5.78571429,14.3147321 L5.78571429,14.3549107 C5.78571429,15.35938 6.12053237,16.2533443 6.79017857,17.0368304 C7.45982478,17.8203164 8.28347725,18.3058026 9.26116071,18.4933036 C8.87276592,18.600447 8.53125147,18.6540179 8.23660714,18.6540179 C8.06249913,18.6540179 7.80134103,18.6272324 7.453125,18.5736607 C7.73437641,19.4174149 8.23325535,20.1138365 8.94977679,20.6629464 C9.66629823,21.2120563 10.4799062,21.4933035 11.390625,21.5066964 C9.8370458,22.7120596 8.08929542,23.3147321 6.14732143,23.3147321 C5.7991054,23.3147321 5.46428732,23.2946431 5.14285714,23.2544643 C7.12500991,24.5133992 9.28123835,25.1428571 11.6116071,25.1428571 C13.1116146,25.1428571 14.5178506,24.9051363 15.8303571,24.4296875 C17.1428637,23.9542387 18.2678525,23.3180843 19.2053571,22.5212054 C20.1428618,21.7243264 20.9497734,20.8069248 21.6261161,19.7689732 C22.3024587,18.7310216 22.8046859,17.646211 23.1328125,16.5145089 C23.4609391,15.3828068 23.625,14.2544699 23.625,13.1294643 C23.625,12.8883917 23.6183036,12.7075899 23.6049107,12.5870536 C24.4486649,11.984372 25.1517829,11.2544686 25.7142857,10.3973214 L25.7142857,10.3973214 Z M30.8571429,6.5 L30.8571429,25.7857143 C30.8571429,27.3794723 30.2913003,28.7421818 29.1595982,29.8738839 C28.0278961,31.005586 26.6651865,31.5714286 25.0714286,31.5714286 L5.78571429,31.5714286 C4.19195632,31.5714286 2.82924673,31.005586 1.69754464,29.8738839 C0.565842556,28.7421818 0,27.3794723 0,25.7857143 L0,6.5 C0,4.90624203 0.565842556,3.54353244 1.69754464,2.41183036 C2.82924673,1.28012827 4.19195632,0.714285714 5.78571429,0.714285714 L25.0714286,0.714285714 C26.6651865,0.714285714 28.0278961,1.28012827 29.1595982,2.41183036 C30.2913003,3.54353244 30.8571429,4.90624203 30.8571429,6.5 L30.8571429,6.5 Z" id="twitter-square---fontawesome"></path>
                </g>
            </g>
        </g>
    </g>
</svg>