<?xml version="1.0" encoding="UTF-8" standalone="no"?>
<svg width="31px" height="32px" viewBox="0 0 31 32" version="1.1" xmlns="http://www.w3.org/2000/svg" xmlns:xlink="http://www.w3.org/1999/xlink">
    <!-- Generator: Sketch 3.6.1 (26313) - http://www.bohemiancoding.com/sketch -->
    <title>youtube-square - fontawesome</title>
    <desc>Created with Sketch.</desc>
    <defs></defs>
    <g id="Homepage-Exploration" stroke="none" stroke-width="1" fill="none" fill-rule="evenodd">
        <g id="Home-Page" transform="translate(-249.000000, -3752.000000)" fill="#FFFFFF">
            <g id="Footer" transform="translate(0.000000, 3440.000000)">
                <g id="Social-Icons" transform="translate(95.000000, 312.000000)">
                    <path d="M172.462054,24.3191964 L172.462054,21.1651786 C172.462054,20.4955324 172.267859,20.1607143 171.879464,20.1607143 C171.651785,20.1607143 171.430805,20.2678561 171.216518,20.4821429 L171.216518,24.9821429 C171.430805,25.1964296 171.651785,25.3035714 171.879464,25.3035714 C172.267859,25.3035714 172.462054,24.9754497 172.462054,24.3191964 L172.462054,24.3191964 Z M176.158482,21.8683036 L177.484375,21.8683036 L177.484375,21.1852679 C177.484375,20.5022287 177.263395,20.1607143 176.821429,20.1607143 C176.379462,20.1607143 176.158482,20.5022287 176.158482,21.1852679 L176.158482,21.8683036 Z M164.6875,16.5245536 L164.6875,17.9308036 L163.080357,17.9308036 L163.080357,26.4285714 L161.59375,26.4285714 L161.59375,17.9308036 L160.026786,17.9308036 L160.026786,16.5245536 L164.6875,16.5245536 Z M168.725446,19.0558036 L168.725446,26.4285714 L167.379464,26.4285714 L167.379464,25.625 C166.85714,26.2276816 166.348217,26.5290179 165.852679,26.5290179 C165.410712,26.5290179 165.129465,26.3415197 165.008929,25.9665179 C164.928571,25.7522311 164.888393,25.3906275 164.888393,24.8816964 L164.888393,19.0558036 L166.214286,19.0558036 L166.214286,24.4799107 C166.214286,24.8013409 166.220982,24.9754463 166.234375,25.0022321 C166.247768,25.203126 166.348213,25.3035714 166.535714,25.3035714 C166.803573,25.3035714 167.08482,25.0959842 167.379464,24.6808036 L167.379464,19.0558036 L168.725446,19.0558036 Z M173.787946,21.2857143 L173.787946,24.21875 C173.787946,24.9151821 173.741072,25.4040165 173.647321,25.6852679 C173.486606,26.2477707 173.131699,26.5290179 172.582589,26.5290179 C172.113837,26.5290179 171.658484,26.254467 171.216518,25.7053571 L171.216518,26.4285714 L169.870536,26.4285714 L169.870536,16.5245536 L171.216518,16.5245536 L171.216518,19.7589286 C171.645091,19.2232116 172.100444,18.9553571 172.582589,18.9553571 C173.131699,18.9553571 173.486606,19.2366043 173.647321,19.7991071 C173.741072,20.0803585 173.787946,20.5758893 173.787946,21.2857143 L173.787946,21.2857143 Z M178.830357,23.8772321 L178.830357,24.0580357 C178.830357,24.4464305 178.816964,24.7343741 178.790179,24.921875 C178.75,25.2165193 178.649554,25.4843738 178.488839,25.7254464 C178.12723,26.2611634 177.591521,26.5290179 176.881696,26.5290179 C176.185264,26.5290179 175.642859,26.2745561 175.254464,25.765625 C174.973213,25.404016 174.832589,24.828129 174.832589,24.0379464 L174.832589,21.4464286 C174.832589,20.656246 174.966517,20.080359 175.234375,19.71875 C175.62277,19.2098189 176.158479,18.9553571 176.841518,18.9553571 C177.524557,18.9553571 178.046873,19.2098189 178.408482,19.71875 C178.689734,20.0937519 178.830357,20.669639 178.830357,21.4464286 L178.830357,22.9732143 L176.158482,22.9732143 L176.158482,24.2790179 C176.158482,24.962057 176.386158,25.3035714 176.841518,25.3035714 C177.162948,25.3035714 177.363839,25.129466 177.444196,24.78125 C177.444196,24.7678571 177.447545,24.7209825 177.454241,24.640625 C177.460938,24.5602675 177.464286,24.4497775 177.464286,24.3091518 L177.464286,23.8772321 L178.830357,23.8772321 Z M169.770089,7.32366071 L169.770089,10.4575893 C169.770089,11.1406284 169.555806,11.4821429 169.127232,11.4821429 C168.698659,11.4821429 168.484375,11.1406284 168.484375,10.4575893 L168.484375,7.32366071 C168.484375,6.62722866 168.698659,6.27901786 169.127232,6.27901786 C169.555806,6.27901786 169.770089,6.62722866 169.770089,7.32366071 L169.770089,7.32366071 Z M180.477679,21.6473214 C180.477679,19.2767739 180.350448,17.5357198 180.095982,16.4241071 C179.962053,15.8348185 179.674109,15.3426359 179.232143,14.9475446 C178.790176,14.5524534 178.281253,14.3214289 177.705357,14.2544643 C175.883919,14.0535704 173.125018,13.953125 169.428571,13.953125 C165.745517,13.953125 162.993313,14.0535704 161.171875,14.2544643 C160.582586,14.3214289 160.070315,14.5524534 159.635045,14.9475446 C159.199775,15.3426359 158.915179,15.8348185 158.78125,16.4241071 C158.513392,17.5892915 158.379464,19.3303456 158.379464,21.6473214 C158.379464,24.0044761 158.513392,25.7455301 158.78125,26.8705357 C158.915179,27.4464315 159.199775,27.9352658 159.635045,28.3370536 C160.070315,28.7388413 160.57589,28.973214 161.151786,29.0401786 C162.986616,29.2410724 165.745517,29.3415179 169.428571,29.3415179 C173.111626,29.3415179 175.870527,29.2410724 177.705357,29.0401786 C178.281253,28.973214 178.786828,28.7388413 179.222098,28.3370536 C179.657368,27.9352658 179.941964,27.4464315 180.075893,26.8705357 C180.343751,25.7455301 180.477679,24.0044761 180.477679,21.6473214 L180.477679,21.6473214 Z M165.310268,8.56919643 L167.118304,2.62276786 L165.611607,2.62276786 L164.587054,6.54017857 L163.522321,2.62276786 L161.955357,2.62276786 C162.062501,2.93080511 162.223213,3.39285406 162.4375,4.00892857 C162.651787,4.62500308 162.805803,5.08705203 162.899554,5.39508929 C163.368306,6.77456047 163.676339,7.8325856 163.823661,8.56919643 L163.823661,12.6071429 L165.310268,12.6071429 L165.310268,8.56919643 Z M171.116071,10.1964286 L171.116071,7.58482143 C171.116071,6.80803183 170.975448,6.22544837 170.694196,5.83705357 C170.305802,5.32812246 169.783485,5.07366071 169.127232,5.07366071 C168.444193,5.07366071 167.921877,5.32812246 167.560268,5.83705357 C167.279016,6.22544837 167.138393,6.80803183 167.138393,7.58482143 L167.138393,10.1964286 C167.138393,10.9732182 167.279016,11.5558016 167.560268,11.9441964 C167.921877,12.4531275 168.444193,12.7075893 169.127232,12.7075893 C169.783485,12.7075893 170.305802,12.4531275 170.694196,11.9441964 C170.975448,11.5825875 171.116071,11.000004 171.116071,10.1964286 L171.116071,10.1964286 Z M174.752232,12.6071429 L176.098214,12.6071429 L176.098214,5.17410714 L174.752232,5.17410714 L174.752232,10.859375 C174.457588,11.2745556 174.176341,11.4821429 173.908482,11.4821429 C173.707588,11.4821429 173.600446,11.3750011 173.587054,11.1607143 C173.573661,11.1339284 173.566964,10.959823 173.566964,10.6383929 L173.566964,5.17410714 L172.220982,5.17410714 L172.220982,11.0602679 C172.220982,11.555806 172.26116,11.9241059 172.341518,12.1651786 C172.48884,12.5267875 172.776784,12.7075893 173.205357,12.7075893 C173.687502,12.7075893 174.203122,12.406253 174.752232,11.8035714 L174.752232,12.6071429 Z M184.857143,6.5 L184.857143,25.7857143 C184.857143,27.3794723 184.2913,28.7421818 183.159598,29.8738839 C182.027896,31.005586 180.665187,31.5714286 179.071429,31.5714286 L159.785714,31.5714286 C158.191956,31.5714286 156.829247,31.005586 155.697545,29.8738839 C154.565843,28.7421818 154,27.3794723 154,25.7857143 L154,6.5 C154,4.90624203 154.565843,3.54353244 155.697545,2.41183036 C156.829247,1.28012827 158.191956,0.714285714 159.785714,0.714285714 L179.071429,0.714285714 C180.665187,0.714285714 182.027896,1.28012827 183.159598,2.41183036 C184.2913,3.54353244 184.857143,4.90624203 184.857143,6.5 L184.857143,6.5 Z" id="youtube-square---fontawesome"></path>
                </g>
            </g>
        </g>
    </g>
</svg>