<?xml version="1.0" encoding="utf-8"?>
<!-- Generator: Adobe Illustrator 16.0.4, SVG Export Plug-In . SVG Version: 6.00 Build 0)  -->
<!DOCTYPE svg PUBLIC "-//W3C//DTD SVG 1.1//EN" "http://www.w3.org/Graphics/SVG/1.1/DTD/svg11.dtd">
<svg version="1.1" id="Layer_1" xmlns="http://www.w3.org/2000/svg" xmlns:xlink="http://www.w3.org/1999/xlink" x="0px" y="0px"
	 width="100px" height="100px" viewBox="0 0 100 100" enable-background="new 0 0 100 100" xml:space="preserve">
<path fill="#454545" d="M54.997,35.213V14.017l-5.299-5.3l-5.299,5.3v21.196H54.997z M76.193,24.614l5.301,5.301L70.896,40.513
	l-5.302-5.299L76.193,24.614z M70.896,72.316l10.599,10.599l-5.301,5.3l-10.6-10.599L70.896,72.316z M92.1,61.719l5.301-5.301
	L92.1,51.12H70.896v10.599H92.1z M23.197,24.614l10.602,10.599l-5.303,5.299L17.898,29.916L23.197,24.614z M28.496,72.316l5.303,5.3
	L23.197,88.215l-5.299-5.3L28.496,72.316z M7.299,51.12L2,56.418l5.299,5.301h21.197V51.12H7.299z"/>
<path fill="#454545" d="M49.7,40.448c-8.923,0-16.156,7.232-16.156,16.155c0,5.286,2.538,9.978,6.462,12.925v9.695
	c0,1.786,1.446,3.231,3.231,3.231c0,1.785,1.445,3.23,3.231,3.23h6.463c1.786,0,3.231-1.445,3.231-3.23
	c1.785,0,3.23-1.445,3.23-3.231v-9.695c3.926-2.947,6.463-7.639,6.463-12.925C65.856,47.681,58.624,40.448,49.7,40.448z
	 M56.163,77.608c0,0.89-0.727,1.615-1.616,1.615h-9.694c-0.892,0-1.616-0.726-1.616-1.615v-1.616h12.926V77.608z M59.394,65.152
	c-1.679,1.669-3.23,2.143-3.23,6.263v1.346h-3.231v-6.464l6.462-6.462v-3.231l-3.23-3.23l-3.231,3.23l-3.232-3.23l-3.231,3.23
	l-3.231-3.23l-3.231,3.23v3.231l6.462,6.462v6.464h-3.231v-1.346c0-4.124-1.553-4.594-3.231-6.263
	c-2.01-2.278-3.231-5.27-3.231-8.549c0-7.137,5.787-12.924,12.925-12.924c7.138,0,12.925,5.788,12.925,12.924
	C62.625,59.883,61.403,62.874,59.394,65.152z M49.7,66.297l-6.462-6.462v-3.231l3.231,3.231l3.231-3.231l3.232,3.231l3.231-3.231
	v3.231L49.7,66.297z"/>
</svg>
